OpenSim_Sub02_CSStiffKnee_GRF.mot
version=1
nRows=28
nColumns=19
inDegrees=no
endheader
time	lFx	lFy	lFz	lCOPx	lCOPy	lCOPz	rFx	rFy	rFz	rCOPx	rCOPy	rCOPz	lMx	lMy	lMz	rMx	rMy	rMz
0	2.91115252	281.04169490	28.03752951	0.59907384	0	-0.67673528	-3.34153119	267.60988943	-28.76295005	0.62298350	0	-0.37183241	0	-2.09843906	0	0	0.61068795	-0.00000000
0.01000000	3.40443215	280.54598585	28.04416548	0.59861895	0	-0.67661400	-1.33446569	267.72550599	-28.29230668	0.62573766	0	-0.37200367	0	-1.99454142	0	0	0.53816292	-0.00000000
0.02000000	3.64165930	280.27392194	28.04129157	0.59834230	0	-0.67657039	-0.29941977	267.96611139	-28.07297829	0.62739237	0	-0.37205653	0	-1.92602082	0	0	0.50271645	-0.00000000
0.03000000	3.68793750	280.17306511	28.01992828	0.59824040	0	-0.67654939	-0.00668205	268.20484316	-28.04139288	0.62808746	0	-0.37204939	0	-1.88782037	0	0	0.49510592	0
0.04000000	3.65750718	280.16748440	27.99318767	0.59824243	0	-0.67649603	-0.07122202	268.37647900	-28.07907920	0.62817417	0	-0.37201038	0	-1.87013612	0	0	0.50437013	0.00000000
0.05000000	3.59191422	280.22619968	28.00539831	0.59825653	0	-0.67640859	-0.22944561	268.55555916	-28.12088425	0.62804119	0	-0.37196946	0	-1.86403426	0	0	0.51086816	0.00000000
0.06000000	3.51662716	280.31642626	28.05511126	0.59823146	0	-0.67631690	-0.36236716	268.82446710	-28.13875551	0.62791735	0	-0.37192023	0	-1.86271972	0	0	0.51001163	0
0.07000000	3.46966191	280.36234386	28.08525492	0.59829837	0	-0.67628521	-0.44445206	269.17769703	-28.13271789	0.62792494	0	-0.37184051	0	-1.87433126	0	0	0.50245106	-0.00000000
0.08000000	3.44835326	280.26900597	28.08123407	0.59837407	0	-0.67626458	-0.48717931	269.52580760	-28.14151096	0.62810023	0	-0.37176633	0	-1.89862323	0	0	0.48968078	0
0.09000000	3.41954728	280.05609340	28.06060413	0.59834466	0	-0.67620223	-0.52269471	269.72987285	-28.18146096	0.62829923	0	-0.37176591	0	-1.92650481	0	0	0.48820431	0.00000000
0.10000000	3.37287518	279.81025391	28.02667072	0.59824002	0	-0.67613927	-0.57800696	269.77794850	-28.24960401	0.62838021	0	-0.37184518	0	-1.94265868	0	0	0.49818923	0.00000000
0.11000000	3.32656533	279.60650061	27.99774905	0.59817703	0	-0.67611271	-0.62334188	269.79416445	-28.33176431	0.62845244	0	-0.37191656	0	-1.94986342	0	0	0.50298482	0
0.12000000	3.29790253	279.45275269	27.97839672	0.59822044	0	-0.67613477	-0.65499198	269.87642654	-28.40340377	0.62843589	0	-0.37194072	0	-1.96789407	0	0	0.50814496	-0.00000000
0.13000000	3.27706955	279.26582576	27.96078850	0.59835728	0	-0.67616394	-0.66894063	270.02323331	-28.44826889	0.62828906	0	-0.37190840	0	-1.98431147	0	0	0.51626620	-0.00000000
0.14000000	3.27015035	279.04195040	27.93533186	0.59851304	0	-0.67621447	-0.68050227	270.22575908	-28.49050197	0.62820759	0	-0.37182844	0	-1.98731050	0	0	0.52145991	-0.00000000
0.15000000	3.27790519	278.81254317	27.89703627	0.59861111	0	-0.67630611	-0.70301230	270.47700936	-28.55400251	0.62828769	0	-0.37173691	0	-1.98741489	0	0	0.52322211	-0.00000000
0.16000000	3.26515725	278.52297815	27.85580395	0.59862517	0	-0.67636788	-0.72493492	270.74283024	-28.64972325	0.62839697	0	-0.37169724	0	-1.99484327	0	0	0.52852727	-0.00000000
0.17000000	3.21806696	278.19858482	27.82728473	0.59862688	0	-0.67633531	-0.75133895	270.97327997	-28.74659026	0.62839751	0	-0.37171449	0	-2.00219818	0	0	0.53098717	0
0.18000000	3.16551553	277.91416853	27.80692311	0.59873137	0	-0.67624432	-0.78546124	271.16520518	-28.80002878	0.62842373	0	-0.37176145	0	-1.99858402	0	0	0.51550263	-0.00000000
0.19000000	3.12731960	277.72874257	27.78731026	0.59891717	0	-0.67618347	-0.82947478	271.34077033	-28.81356986	0.62852154	0	-0.37180491	0	-1.98706416	0	0	0.49089892	0.00000000
0.20000000	3.11516681	277.63895992	27.77848719	0.59903744	0	-0.67619485	-0.87399426	271.49629961	-28.81050945	0.62856103	0	-0.37178258	0	-1.98037341	0	0	0.48363945	0.00000000
0.21000000	3.11962518	277.56946720	27.77561752	0.59897837	0	-0.67622346	-0.89611897	271.61435791	-28.79654778	0.62862715	0	-0.37168356	0	-1.99205082	0	0	0.49297633	0.00000000
0.22000000	3.12834386	277.49182789	27.77065110	0.59876363	0	-0.67625561	-0.90159687	271.66893895	-28.79002157	0.62872179	0	-0.37159323	0	-2.01278791	0	0	0.50524764	-0.00000000
0.23000000	3.14430749	277.48891457	27.76509615	0.59852948	0	-0.67630875	-0.88691677	271.66679820	-28.78550743	0.62886449	0	-0.37155635	0	-2.02143976	0	0	0.50796543	0.00000000
0.24000000	3.16304645	277.54150617	27.75939844	0.59829949	0	-0.67635263	-0.86894706	271.58497722	-28.78363287	0.62899106	0	-0.37155739	0	-2.00307383	0	0	0.49950795	0.00000000
0.25000000	3.17762917	277.60439848	27.75986709	0.59813864	0	-0.67635872	-0.85308972	271.44005224	-28.77470153	0.62909877	0	-0.37156840	0	-1.96558151	0	0	0.47646156	0.00000000
0.26000000	3.19359608	277.70436251	27.77575212	0.59809161	0	-0.67630868	-0.82423379	271.30461438	-28.75857909	0.62926825	0	-0.37158900	0	-1.93554135	0	0	0.45706047	-0.00000000
0.27000000	3.20774780	277.85041437	27.79767134	0.59803903	0	-0.67624943	-0.78484125	271.20655651	-28.75328002	0.62941570	0	-0.37162922	0	-1.92685791	0	0	0.44983170	0.00000000
